<svg width="32" height="32" viewBox="0 0 32 32" fill="none" xmlns="http://www.w3.org/2000/svg">
<path d="M23 14V12H9V14H14V16.734L10.132 23.504L11.868 24.496L15.58 18H16.42L20.132 24.496L21.868 23.504L18 16.734V14H23Z" fill="black"/>
<path d="M16 11C17.1046 11 18 10.1046 18 9C18 7.89543 17.1046 7 16 7C14.8954 7 14 7.89543 14 9C14 10.1046 14.8954 11 16 11Z" fill="black"/>
<path d="M16 30C13.2311 30 10.5243 29.1789 8.22202 27.6406C5.91973 26.1022 4.12532 23.9157 3.06569 21.3576C2.00607 18.7994 1.72882 15.9845 2.26901 13.2687C2.80921 10.553 4.14258 8.05845 6.10051 6.10051C8.05845 4.14258 10.553 2.80921 13.2687 2.26901C15.9845 1.72882 18.7994 2.00607 21.3576 3.06569C23.9157 4.12532 26.1022 5.91973 27.6406 8.22202C29.1789 10.5243 30 13.2311 30 16C29.9958 19.7117 28.5194 23.2702 25.8948 25.8948C23.2702 28.5194 19.7117 29.9958 16 30ZM16 4.00001C13.6266 4.00001 11.3066 4.70379 9.33316 6.02237C7.35977 7.34095 5.8217 9.21509 4.91345 11.4078C4.0052 13.6005 3.76756 16.0133 4.23058 18.3411C4.69361 20.6689 5.83649 22.8071 7.51472 24.4853C9.19296 26.1635 11.3312 27.3064 13.6589 27.7694C15.9867 28.2325 18.3995 27.9948 20.5922 27.0866C22.7849 26.1783 24.6591 24.6402 25.9776 22.6668C27.2962 20.6935 28 18.3734 28 16C27.9963 12.8185 26.7308 9.76845 24.4812 7.51882C22.2316 5.26918 19.1815 4.00371 16 4.00001Z" fill="black"/>
</svg>
