<svg viewBox="0 0 226 200" fill="none" xmlns="http://www.w3.org/2000/svg">
<g clip-path="url(#clip0_31_268)">
<path d="M143.544 63.6078C128.842 49.0944 71.9655 37.5767 50.3887 44.782C52.0655 46.1744 53.1946 47.3232 54.6207 48.1732C57.119 49.9312 59.6973 51.5093 62.1156 53.4471C64.1231 55.2022 64.4182 57.4881 62.9103 59.4026C61.1622 61.8567 59.5761 61.3664 57.8762 60.3946C51.2934 56.3884 44.6538 52.1414 38.0942 47.7145C35.0482 45.7128 35.4502 42.2289 38.8537 39.0032C40.2585 37.6891 41.9941 36.7377 43.3989 35.4236C52.8894 27.3652 62.1629 19.4257 71.4364 11.4862C72.2473 10.7697 73.0013 9.81248 73.709 9.69646C75.1244 9.46442 77.0307 9.23529 77.6121 10.1404C78.3305 11.1064 78.2717 13.4503 77.6315 14.8891C76.9113 16.5078 75.5065 17.8218 74.2386 19.1968C70.3211 22.8402 66.2098 26.1819 62.2924 29.8253C61.1845 30.8406 60.2136 31.9168 58.7288 33.4107C59.7672 33.6573 60.178 33.8401 60.5318 33.7821C91.7267 31.5027 119.673 39.8433 145.868 53.2227C149.759 55.1693 153.33 57.8353 156.386 60.919C160.161 64.9686 164.576 67.5795 169.529 69.3521C179.216 73.0161 187.589 78.8963 194.032 88.011C197.68 93.0818 200.438 99.049 201.951 105.97C205.078 121.798 201.027 136.801 189.901 150.38C181.036 161.087 170.36 167.755 159.057 171.776C137.594 179.463 117.839 177.783 99.6977 168.418C98.3286 167.809 97.3364 166.721 96.2641 165.813C94.7811 164.722 94.3829 163.037 95.5601 160.76C96.7373 158.483 98.4266 158.372 99.9328 159.043C100.754 159.408 101.633 160.014 102.454 160.38C116.487 167.917 132.123 169.272 148.858 165.945C158.081 164.016 167.067 160.042 175.62 153.721C181.113 149.486 186.081 144.587 189.807 138.057C195.944 127.213 197.173 116.341 193.802 106.223C189.748 93.2151 181.33 85.5914 170.286 79.8155C170.387 81.7997 170.455 83.1225 170.602 84.2655C170.693 85.1676 170.92 86.1307 171.148 87.0938C173.637 101.775 168.981 116.294 157.857 127.288C155.264 129.797 152.534 132.245 149.771 134.032C126.008 149.099 104.791 148.492 86.3801 133.837C78.19 127.176 74.7619 116.817 77.9791 102.951C80.0972 93.7667 85.1244 86.5234 91.6914 80.6115C97.6646 75.2973 104.173 71.7293 111.046 69.1854C120.282 65.7539 129.619 64.3066 138.83 63.8804C140.302 63.8891 141.718 63.657 143.544 63.6078ZM100.031 133.016C110.563 136.625 123.027 136.999 134.032 133.278C140.962 130.975 147.687 127.288 153.626 121.312C162.102 112.586 165.601 102.509 163.555 91.2564C162.691 86.5628 160.685 82.223 158.737 78.1241C157.847 76.4357 155.954 75.1622 154.368 74.6719C138.768 71.3936 122.799 72.2606 106.301 80.2173C101.905 82.3552 97.5202 85.575 93.8197 89.0995C83.3689 99.3162 81.384 113.731 89.0815 122.973C92.0119 127.078 96.2901 129.628 100.031 133.016Z" fill="black"/>
</g>
<defs>
<clipPath id="clip0_31_268">
<rect width="186.445" height="135.947" fill="white" transform="translate(55.265) rotate(23.9864)"/>
</clipPath>
</defs>
</svg>
