<svg width="25" height="25" viewBox="0 0 25 25" fill="none" xmlns="http://www.w3.org/2000/svg">
<path d="M22.9167 1.38889H15.3472C15.163 1.38889 14.9864 1.46205 14.8562 1.59228C14.7259 1.72252 14.6528 1.89915 14.6528 2.08333C14.6528 2.26751 14.7259 2.44414 14.8562 2.57438C14.9864 2.70461 15.163 2.77777 15.3472 2.77777H21.2708L15.1458 9.02777C15.082 9.09298 15.0316 9.17012 14.9976 9.25479C14.9636 9.33946 14.9466 9.43 14.9475 9.52125C14.9485 9.6125 14.9674 9.70266 15.0032 9.78659C15.039 9.87052 15.091 9.94658 15.1562 10.0104C15.2214 10.0743 15.2986 10.1246 15.3833 10.1586C15.4679 10.1927 15.5585 10.2097 15.6497 10.2087C15.741 10.2077 15.8311 10.1888 15.9151 10.153C15.999 10.1172 16.075 10.0652 16.1389 10L22.2222 3.79166V9.65277C22.2222 9.83695 22.2954 10.0136 22.4256 10.1438C22.5558 10.2741 22.7325 10.3472 22.9167 10.3472C23.1008 10.3472 23.2775 10.2741 23.4077 10.1438C23.5379 10.0136 23.6111 9.83695 23.6111 9.65277V2.08333C23.6111 1.89915 23.5379 1.72252 23.4077 1.59228C23.2775 1.46205 23.1008 1.38889 22.9167 1.38889Z" fill="black"/>
<path d="M8.01391 7.45137L1.76391 11.0417C1.65794 11.1028 1.57001 11.1909 1.50904 11.297C1.44806 11.4031 1.41621 11.5235 1.41669 11.6458V19.2847C1.41621 19.4071 1.44806 19.5274 1.50904 19.6335C1.57001 19.7396 1.65794 19.8277 1.76391 19.8889L8.01391 23.4653C8.11948 23.5262 8.23924 23.5583 8.36114 23.5583C8.48304 23.5583 8.60279 23.5262 8.70836 23.4653L14.9584 19.8889C15.0643 19.8277 15.1523 19.7396 15.2132 19.6335C15.2742 19.5274 15.3061 19.4071 15.3056 19.2847V11.6458C15.3061 11.5235 15.2742 11.4031 15.2132 11.297C15.1523 11.1909 15.0643 11.1028 14.9584 11.0417L8.70836 7.45137C8.60279 7.39042 8.48304 7.35834 8.36114 7.35834C8.23924 7.35834 8.11948 7.39042 8.01391 7.45137ZM7.63891 21.5833L2.7778 18.8055V12.8055L7.63891 15.5833V21.5833ZM8.33336 14.5833L3.3403 11.7153L8.33336 8.87499L13.3403 11.7361L8.33336 14.5833ZM13.8889 18.8125L9.0278 21.5903V15.5833L13.8889 12.8055V18.8125Z" fill="black"/>
</svg>
