<svg width="321" height="364" viewBox="0 0 321 364" fill="none" xmlns="http://www.w3.org/2000/svg">
<g clip-path="url(#clip0_27_166)">
<path d="M31.9301 84.2099C65.2069 81.4138 98.5826 80.3309 132.033 80.8242L127.878 74.3258C109.781 85.7747 91.7082 97.3606 74.4886 110.129C65.8536 116.547 57.4255 123.269 49.379 130.444C43.103 136.032 35.0959 142.128 32.5019 150.643C29.9079 159.158 36.3489 167.384 44.6095 169.693C53.462 172.165 63.1938 172.647 72.2747 173.1C91.2376 174.048 110.162 172.851 129.052 172.011C150.338 171.064 171.771 170.641 192.947 174.455L188.71 167.826C169.33 178.701 149.892 189.624 131.968 202.856C122.956 209.518 114.275 216.743 106.449 224.81C101.201 230.224 95.68 238.08 98.0052 246.259C101.059 257.038 112.862 260.39 122.284 262.504C132.39 264.758 142.739 265.369 153.006 265.765C176.678 266.669 200.359 267.377 224.048 268.188C251.042 269.115 278.044 270.188 305.049 270.792C308.664 270.867 304.534 264.336 302.072 264.219C256.55 262.135 211.023 260.987 165.506 259.43C155.155 259.075 144.787 258.94 134.449 257.963C129.601 257.502 124.762 256.845 119.967 255.806C115.173 254.768 110.319 253.778 106.259 251.35C99.2941 247.191 107.152 236.351 110.521 232.599C117.368 224.979 125.47 218.307 133.553 212.11C152.477 197.572 173.331 185.867 194.084 174.209C195.19 173.595 194.001 171.237 193.587 170.586C192.759 169.285 191.381 167.865 189.847 167.58C154.217 161.193 118.345 166.65 82.6301 166.581C73.7221 166.576 64.7912 166.178 55.8972 165.168C51.4585 164.66 46.9281 164.131 42.5508 163.105C41.3919 162.832 39.2485 162.435 38.4694 161.408C37.6904 160.38 37.9256 158.635 38.1155 157.526C39.5394 149.231 47.6799 143.155 53.4111 137.977C60.8707 131.252 68.662 124.919 76.6439 118.856C94.8124 105.103 114.024 92.8885 133.153 80.5858C135.373 79.1641 130.676 74.1127 128.998 74.0874C95.2221 73.6438 61.4363 74.9015 27.8419 77.7646C26.163 77.9094 27.3831 80.6775 27.8299 81.3972C28.674 82.7331 30.2512 84.3548 31.9468 84.2019L31.9301 84.2099Z" fill="black"/>
<path d="M287.546 261.065C292.591 262.111 297.618 263.335 302.586 264.779C305.045 265.491 307.479 266.237 309.904 267.051C310.954 267.397 312.037 267.728 313.07 268.168C313.428 268.314 313.802 268.624 314.169 268.745C314.302 268.766 314.369 268.819 314.401 268.931C313.753 267.014 313.388 266.51 313.324 267.452L314.121 266.753C307.392 268.336 300.671 269.936 293.949 271.537C289.41 272.624 281.192 273.073 280.524 279.12C280.313 281.045 285.317 286.437 286.267 283.65C287.023 281.486 289.039 280.671 291.088 280.094C294.006 279.272 296.982 278.656 299.933 277.946C306.094 276.465 312.264 275.001 318.417 273.502C318.809 273.421 319.069 273.19 319.214 272.803C320.061 269.111 317.35 265.719 314.523 263.634C311.696 261.549 308.386 260.819 305.244 259.839C298.443 257.702 291.557 255.903 284.586 254.483C282.809 254.123 283.031 256.266 283.501 257.335C284.21 258.947 285.786 260.697 287.571 261.074L287.546 261.065Z" fill="black"/>
</g>
<defs>
<clipPath id="clip0_27_166">
<rect width="302" height="211" fill="white" transform="translate(190.375) rotate(64.4554)"/>
</clipPath>
</defs>
</svg>
