<svg width="25" height="25" viewBox="0 0 25 25" fill="none" xmlns="http://www.w3.org/2000/svg">
<path d="M2.08337 6.24998C2.08337 4.68227 2.89587 3.04165 4.16671 2.08331C4.16671 2.96352 4.88546 4.16665 6.25004 4.16665C7.07884 4.16665 7.8737 4.49589 8.45975 5.08194C9.0458 5.66799 9.37504 6.46284 9.37504 7.29165C9.37504 7.69373 9.29275 8.07498 9.15421 8.4281C9.92687 9.04132 10.6878 9.66921 11.4365 10.3114L9.26983 12.4781C8.62786 11.7292 7.99998 10.9683 7.3865 10.1958C7.0249 10.3401 6.63936 10.415 6.25004 10.4166C3.94796 10.4166 2.08337 8.55206 2.08337 6.24998ZM14.7417 13.3833L16.1386 11.9864C16.7854 12.3195 17.5017 12.4954 18.2292 12.5C19.4724 12.5 20.6647 12.0061 21.5438 11.127C22.4228 10.248 22.9167 9.05568 22.9167 7.81248C22.9167 7.05727 22.7209 6.3531 22.4032 5.72185L18.75 9.37498L16.6667 7.29165L20.3198 3.63852C19.673 3.3055 18.9567 3.12957 18.2292 3.12498C16.986 3.12498 15.7937 3.61884 14.9146 4.49792C14.0356 5.37699 13.5417 6.56928 13.5417 7.81248C13.5417 8.56769 13.7375 9.27185 14.0552 9.9031L3.12504 20.8333L5.20837 22.9166L12.3417 15.7833C14.3036 17.7962 16.3825 19.6915 18.5677 21.4594L20.0521 22.6562L21.6146 21.0937L20.4177 19.6094C18.6499 17.4241 16.7546 15.3452 14.7417 13.3833Z" fill="black"/>
</svg>
