<svg width="25" height="25" viewBox="0 0 25 25" fill="none" xmlns="http://www.w3.org/2000/svg">
<path d="M14.323 2.08333C13.6042 2.08333 13.0209 2.66666 13.0209 3.38541V5.98958C13.0209 6.70833 13.6042 7.29166 14.323 7.29166H18.4896C19.2084 7.29166 19.7917 6.70833 19.7917 5.98958V3.38541C19.7917 2.66666 19.2084 2.08333 18.4896 2.08333H14.323ZM17.1875 9.63541C17.1875 9.42821 17.1052 9.2295 16.9587 9.08298C16.8122 8.93647 16.6135 8.85416 16.4063 8.85416C16.1991 8.85416 16.0004 8.93647 15.8539 9.08298C15.7074 9.2295 15.625 9.42821 15.625 9.63541V16.6042L14.3542 15.3333C14.2827 15.2566 14.1964 15.195 14.1006 15.1523C14.0048 15.1096 13.9013 15.0866 13.7964 15.0848C13.6915 15.0829 13.5873 15.1022 13.49 15.1415C13.3928 15.1808 13.3044 15.2393 13.2302 15.3135C13.156 15.3877 13.0975 15.4761 13.0582 15.5733C13.019 15.6706 12.9997 15.7748 13.0015 15.8797C13.0034 15.9846 13.0263 16.0881 13.069 16.1839C13.1117 16.2797 13.1733 16.366 13.25 16.4375L15.8542 19.0417C16.0007 19.188 16.1993 19.2701 16.4063 19.2701C16.6133 19.2701 16.8119 19.188 16.9584 19.0417L19.5625 16.4375C19.6393 16.366 19.7009 16.2797 19.7436 16.1839C19.7863 16.0881 19.8092 15.9846 19.8111 15.8797C19.8129 15.7748 19.7936 15.6706 19.7543 15.5733C19.715 15.4761 19.6566 15.3877 19.5824 15.3135C19.5082 15.2393 19.4198 15.1808 19.3225 15.1415C19.2253 15.1022 19.1211 15.0829 19.0162 15.0848C18.9113 15.0866 18.8078 15.1096 18.712 15.1523C18.6161 15.195 18.5299 15.2566 18.4584 15.3333L17.1875 16.6042V9.63541ZM6.51046 14.0625C5.79171 14.0625 5.20837 14.6458 5.20837 15.3646V17.9687C5.20837 18.6875 5.79171 19.2708 6.51046 19.2708H10.6771C11.3959 19.2708 11.9792 18.6875 11.9792 17.9687V15.3646C11.9792 14.6458 11.3959 14.0625 10.6771 14.0625H6.51046ZM3.64587 17.4479C3.64587 17.2407 3.56356 17.042 3.41705 16.8955C3.27054 16.749 3.07182 16.6667 2.86462 16.6667C2.65742 16.6667 2.45871 16.749 2.3122 16.8955C2.16568 17.042 2.08337 17.2407 2.08337 17.4479V19.5312C2.08337 20.291 2.38518 21.0196 2.92239 21.5568C3.4596 22.094 4.18822 22.3958 4.94796 22.3958H20.0521C20.8119 22.3958 21.5405 22.094 22.0777 21.5568C22.6149 21.0196 22.9167 20.291 22.9167 19.5312V17.4479C22.9167 17.2407 22.8344 17.042 22.6879 16.8955C22.5414 16.749 22.3427 16.6667 22.1355 16.6667C21.9283 16.6667 21.7295 16.749 21.583 16.8955C21.4365 17.042 21.3542 17.2407 21.3542 17.4479V19.5312C21.3542 20.25 20.7709 20.8333 20.0521 20.8333H4.94796C4.22921 20.8333 3.64587 20.25 3.64587 19.5312V17.4479Z" fill="black"/>
</svg>
