<svg width="24" height="24" viewBox="0 0 24 24" fill="none" xmlns="http://www.w3.org/2000/svg">
<path d="M12 7.1999C16.68 7.1999 20.4 6.1199 20.4 4.7999C20.4 3.4799 16.68 2.3999 12 2.3999C7.32001 2.3999 3.60001 3.4799 3.60001 4.7999C3.60001 6.1199 7.32001 7.1999 12 7.1999ZM12 17.9999C7.32001 17.9999 3.60001 16.9199 3.60001 15.5999V19.1999C3.60001 20.5199 7.32001 21.5999 12 21.5999C16.68 21.5999 20.4 20.5199 20.4 19.1999V15.5999C20.4 16.9199 16.68 17.9999 12 17.9999ZM12 13.1999C7.32001 13.1999 3.60001 12.1199 3.60001 10.7999V14.3999C3.60001 15.7199 7.32001 16.7999 12 16.7999C16.68 16.7999 20.4 15.7199 20.4 14.3999V10.7999C20.4 12.1199 16.68 13.1999 12 13.1999ZM12 8.3999C7.32001 8.3999 3.60001 7.3199 3.60001 5.9999V9.5999C3.60001 10.9199 7.32001 11.9999 12 11.9999C16.68 11.9999 20.4 10.9199 20.4 9.5999V5.9999C20.4 7.3199 16.68 8.3999 12 8.3999Z" fill="black"/>
</svg>
