<svg width="25" height="25" viewBox="0 0 25 25" fill="none" xmlns="http://www.w3.org/2000/svg">
<path d="M25 11.4802C25 12.5354 22.4354 13.3896 19.2708 13.3896C16.1062 13.3896 13.5416 12.5354 13.5416 11.4802V9.57083C13.5416 10.625 16.1062 11.4802 19.2708 11.4802C22.4354 11.4802 25 10.626 25 9.57083" fill="black"/>
<path d="M19.2708 6.39271C16.1093 6.39271 13.5416 5.53333 13.5416 4.48333V8.275C13.5416 9.32604 16.1093 10.1854 19.2708 10.1854C22.4323 10.1854 25 9.32604 25 8.275V4.48333C25 5.53333 22.4323 6.39271 19.2708 6.39271Z" fill="black"/>
<path d="M25 1.90937C25 0.855208 22.4354 0 19.2708 0C16.1062 0 13.5417 0.854167 13.5417 1.90937V3.18333C13.5417 4.2375 16.1062 5.09271 19.2708 5.09271C22.4354 5.09271 25 4.23854 25 3.18333M11.4583 22.9385C11.4583 23.9937 8.89375 24.8479 5.72917 24.8479C2.56458 24.8479 0 23.9937 0 22.9385V21.0292C0 22.0833 2.56458 22.9375 5.72917 22.9375C8.89375 22.9375 11.4583 22.0833 11.4583 21.0281V22.9385Z" fill="black"/>
<path d="M5.72917 17.851C2.56771 17.851 0 16.9917 0 15.9417V19.7333C0 20.7844 2.56771 21.6437 5.72917 21.6437C8.89062 21.6437 11.4583 20.7844 11.4583 19.7333V15.9417C11.4583 16.9917 8.89062 17.851 5.72917 17.851Z" fill="black"/>
<path d="M11.4583 13.3677C11.4583 12.3135 8.89375 11.4583 5.72917 11.4583C2.56458 11.4583 0 12.3125 0 13.3677V14.6417C0 15.6958 2.56458 16.551 5.72917 16.551C8.89375 16.551 11.4583 15.6969 11.4583 14.6417V13.3677ZM20.8333 21.875H18.75V19.1771L16.0521 21.875L14.5833 20.4062L17.2812 17.7083H14.5833V15.625H20.8333V21.875Z" fill="black"/>
</svg>
