<svg width="83" height="87" viewBox="0 0 83 87" fill="none" xmlns="http://www.w3.org/2000/svg">
<path d="M19.7125 8.7002C16.6857 8.7002 13.7829 9.96053 11.6426 12.2039C9.50237 14.4473 8.29999 17.49 8.29999 20.6627V57.629C8.29999 60.8016 9.50237 63.8444 11.6426 66.0878C13.7829 68.3312 16.6857 69.5915 19.7125 69.5915H44.1352C44.2763 69.2435 44.4423 68.8955 44.6249 68.5605L47.6544 63.0708H19.7125C16.849 63.0708 14.525 60.6348 14.525 57.6333V26.1002H60.1625V31.1027C62.0895 30.0239 64.2093 29.3766 66.3875 29.2017V20.6627C66.3875 17.49 65.1851 14.4473 63.0449 12.2039C60.9046 9.96053 58.0018 8.7002 54.975 8.7002H19.7125ZM58.1913 52.6352C56.8507 50.6738 56.1006 48.3369 56.0373 45.925C55.974 43.5131 56.6005 41.1365 57.8361 39.1008C59.0718 37.0651 60.8602 35.4634 62.9713 34.5017C65.0824 33.54 67.4197 33.2622 69.6826 33.704L64.242 43.5785C63.7606 44.5025 63.643 45.5872 63.9143 46.6008C64.1857 47.6144 64.8245 48.4766 65.6943 49.0032C66.564 49.5297 67.5957 49.6788 68.5689 49.4187C69.5422 49.1586 70.3798 48.5098 70.9027 47.6109L76.3392 37.7364C77.8293 39.5638 78.766 41.8152 79.0297 44.2032C79.2934 46.5911 78.8721 49.0073 77.8196 51.1431C76.7672 53.279 75.1313 55.0375 73.1209 56.1943C71.1106 57.3511 68.8169 57.8536 66.5328 57.6377L56.5437 75.7772C55.9059 76.9343 54.8557 77.7785 53.624 78.124C52.3924 78.4695 51.0803 78.288 49.9764 77.6194C48.8724 76.9509 48.067 75.85 47.7374 74.559C47.4078 73.268 47.581 71.8927 48.2188 70.7355L58.1913 52.6352ZM52.1323 48.4809C51.6101 45.4432 51.918 42.3126 53.0204 39.4503L45.0441 31.0853C44.6545 30.6769 44.126 30.4474 43.575 30.4474C43.024 30.4474 42.4955 30.6769 42.1059 31.0853C41.7163 31.4937 41.4974 32.0476 41.4974 32.6252C41.4974 33.2028 41.7163 33.7567 42.1059 34.1651L51.0159 43.5002L42.1059 52.8353C41.7163 53.2437 41.4974 53.7976 41.4974 54.3752C41.4974 54.9528 41.7163 55.5067 42.1059 55.9151C42.4955 56.3235 43.024 56.5529 43.575 56.5529C44.126 56.5529 44.6545 56.3235 45.0441 55.9151L52.1323 48.4809ZM34.6691 31.0853C34.8623 31.2873 35.0156 31.5273 35.1202 31.7916C35.2248 32.0558 35.2787 32.3391 35.2787 32.6252C35.2787 32.9113 35.2248 33.1946 35.1202 33.4588C35.0156 33.723 34.8623 33.9631 34.6691 34.1651L25.759 43.5002L34.6691 52.8353C35.0587 53.2437 35.2776 53.7976 35.2776 54.3752C35.2776 54.9528 35.0587 55.5067 34.6691 55.9151C34.2795 56.3235 33.751 56.5529 33.2 56.5529C32.649 56.5529 32.1205 56.3235 31.7309 55.9151L21.3559 45.0401C21.1626 44.8381 21.0093 44.598 20.9047 44.3338C20.8001 44.0696 20.7463 43.7863 20.7463 43.5002C20.7463 43.2141 20.8001 42.9308 20.9047 42.6666C21.0093 42.4023 21.1626 42.1623 21.3559 41.9603L31.7309 31.0853C31.9236 30.8827 32.1526 30.722 32.4047 30.6124C32.6568 30.5027 32.9271 30.4463 33.2 30.4463C33.4729 30.4463 33.7432 30.5027 33.9953 30.6124C34.2474 30.722 34.4763 30.8827 34.6691 31.0853Z" fill="black"/>
</svg>
