<svg width="25" height="25" viewBox="0 0 25 25" fill="none" xmlns="http://www.w3.org/2000/svg">
<path d="M21.875 12.5V17.1875H3.125V4.6875H11.7188V3.125H3.125C2.7106 3.125 2.31317 3.28962 2.02015 3.58265C1.72712 3.87567 1.5625 4.2731 1.5625 4.6875V17.1875C1.5625 17.6019 1.72712 17.9993 2.02015 18.2924C2.31317 18.5854 2.7106 18.75 3.125 18.75H9.375V21.875H6.25V23.4375H18.75V21.875H15.625V18.75H21.875C22.2894 18.75 22.6868 18.5854 22.9799 18.2924C23.2729 17.9993 23.4375 17.6019 23.4375 17.1875V12.5H21.875ZM14.0625 21.875H10.9375V18.75H14.0625V21.875ZM14.0625 3.125H23.4375V4.6875H14.0625V3.125Z" fill="black"/>
<path d="M14.0625 6.25H23.4375V7.8125H14.0625V6.25ZM14.0625 9.375H18.75V10.9375H14.0625V9.375Z" fill="black"/>
</svg>
