<svg viewBox="0 0 226 67" fill="none" xmlns="http://www.w3.org/2000/svg">
<rect width="226" height="67" fill="black"/>
<path d="M35.74 44.6969C33.82 44.6969 32.368 44.1569 31.384 43.0769C30.4 41.9729 29.908 40.4009 29.908 38.3609V36.9209H33.652V38.6489C33.652 40.2809 34.336 41.0969 35.704 41.0969C36.376 41.0969 36.88 40.9049 37.216 40.5209C37.576 40.1129 37.756 39.4649 37.756 38.5769C37.756 37.5209 37.516 36.5969 37.036 35.8049C36.556 34.9889 35.668 34.0169 34.372 32.8889C32.74 31.4489 31.6 30.1529 30.952 29.0009C30.304 27.8249 29.98 26.5049 29.98 25.0409C29.98 23.0489 30.484 21.5129 31.492 20.4329C32.5 19.3289 33.964 18.7769 35.884 18.7769C37.78 18.7769 39.208 19.3289 40.168 20.4329C41.152 21.5129 41.644 23.0729 41.644 25.1129V26.1569H37.9V24.8609C37.9 23.9969 37.732 23.3729 37.396 22.9889C37.06 22.5809 36.568 22.3769 35.92 22.3769C34.6 22.3769 33.94 23.1809 33.94 24.7889C33.94 25.7009 34.18 26.5529 34.66 27.3449C35.164 28.1369 36.064 29.0969 37.36 30.2249C39.016 31.6649 40.156 32.9729 40.78 34.1489C41.404 35.3249 41.716 36.7049 41.716 38.2889C41.716 40.3529 41.2 41.9369 40.168 43.0409C39.16 44.1449 37.684 44.6969 35.74 44.6969ZM43.9866 19.1369H47.9466V29.3969H52.1946V19.1369H56.1546V44.3369H52.1946V32.9969H47.9466V44.3369H43.9866V19.1369ZM62.1637 19.1369H67.5277L71.6317 44.3369H67.6717L66.9517 39.3329V39.4049H62.4517L61.7317 44.3369H58.0597L62.1637 19.1369ZM66.4837 35.9849L64.7197 23.5289H64.6477L62.9197 35.9849H66.4837ZM72.1248 19.1369H75.9408L77.7048 38.5049H77.7768L79.6488 19.1369H83.9688L85.8408 38.5049H85.9128L87.6768 19.1369H91.0968L88.5408 44.3369H83.6088L81.8088 27.3449H81.7368L79.9368 44.3369H74.6808L72.1248 19.1369ZM93.0998 19.1369H98.0678L101.92 34.2209H101.992V19.1369H105.52V44.3369H101.452L96.6998 25.9409H96.6278V44.3369H93.0998V19.1369ZM117.325 22.7369H113.185V19.1369H125.425V22.7369H121.285V44.3369H117.325V22.7369ZM128.75 19.1369H134.114L138.218 44.3369H134.258L133.538 39.3329V39.4049H129.038L128.318 44.3369H124.646L128.75 19.1369ZM133.07 35.9849L131.306 23.5289H131.234L129.506 35.9849H133.07ZM145.181 44.6969C143.261 44.6969 141.809 44.1569 140.825 43.0769C139.841 41.9729 139.349 40.4009 139.349 38.3609V36.9209H143.093V38.6489C143.093 40.2809 143.777 41.0969 145.145 41.0969C145.817 41.0969 146.321 40.9049 146.657 40.5209C147.017 40.1129 147.197 39.4649 147.197 38.5769C147.197 37.5209 146.957 36.5969 146.477 35.8049C145.997 34.9889 145.109 34.0169 143.813 32.8889C142.181 31.4489 141.041 30.1529 140.393 29.0009C139.745 27.8249 139.421 26.5049 139.421 25.0409C139.421 23.0489 139.925 21.5129 140.933 20.4329C141.941 19.3289 143.405 18.7769 145.325 18.7769C147.221 18.7769 148.649 19.3289 149.609 20.4329C150.593 21.5129 151.085 23.0729 151.085 25.1129V26.1569H147.341V24.8609C147.341 23.9969 147.173 23.3729 146.837 22.9889C146.501 22.5809 146.009 22.3769 145.361 22.3769C144.041 22.3769 143.381 23.1809 143.381 24.7889C143.381 25.7009 143.621 26.5529 144.101 27.3449C144.605 28.1369 145.505 29.0969 146.801 30.2249C148.457 31.6649 149.597 32.9729 150.221 34.1489C150.845 35.3249 151.157 36.7049 151.157 38.2889C151.157 40.3529 150.641 41.9369 149.609 43.0409C148.601 44.1449 147.125 44.6969 145.181 44.6969ZM153.428 19.1369H157.388V29.7569L162.428 19.1369H166.388L161.672 28.3889L166.46 44.3369H162.32L158.972 33.1049L157.388 36.3089V44.3369H153.428V19.1369ZM168.334 19.1369H179.134V22.7369H172.294V29.3969H177.73V32.9969H172.294V40.7369H179.134V44.3369H168.334V19.1369ZM181.412 19.1369H187.28C189.32 19.1369 190.808 19.6169 191.744 20.5769C192.68 21.5129 193.148 22.9649 193.148 24.9329V26.4809C193.148 29.0969 192.284 30.7529 190.556 31.4489V31.5209C191.516 31.8089 192.188 32.3969 192.572 33.2849C192.98 34.1729 193.184 35.3609 193.184 36.8489V41.2769C193.184 41.9969 193.208 42.5849 193.256 43.0409C193.304 43.4729 193.424 43.9049 193.616 44.3369H189.584C189.44 43.9289 189.344 43.5449 189.296 43.1849C189.248 42.8249 189.224 42.1769 189.224 41.2409V36.6329C189.224 35.4809 189.032 34.6769 188.648 34.2209C188.288 33.7649 187.652 33.5369 186.74 33.5369H185.372V44.3369H181.412V19.1369ZM186.812 29.9369C187.604 29.9369 188.192 29.7329 188.576 29.3249C188.984 28.9169 189.188 28.2329 189.188 27.2729V25.3289C189.188 24.4169 189.02 23.7569 188.684 23.3489C188.372 22.9409 187.868 22.7369 187.172 22.7369H185.372V29.9369H186.812Z" fill="white"/>
<path d="M29.116 47.2169H194.444V50.0969H29.116V47.2169Z" fill="white"/>
</svg>
