<svg viewBox="0 0 250 250" fill="none" xmlns="http://www.w3.org/2000/svg">
<path d="M226.562 39.0625H23.4375C19.1162 39.0625 15.625 42.5537 15.625 46.875V203.125C15.625 207.446 19.1162 210.938 23.4375 210.938H226.562C230.884 210.938 234.375 207.446 234.375 203.125V46.875C234.375 42.5537 230.884 39.0625 226.562 39.0625ZM216.797 66.1133V193.359H33.2031V66.1133L26.4648 60.8643L36.0596 48.5352L46.5088 56.665H203.516L213.965 48.5352L223.56 60.8643L216.797 66.1133ZM203.516 56.6406L125 117.676L46.4844 56.6406L36.0352 48.5107L26.4404 60.8398L33.1787 66.0889L116.577 130.933C118.976 132.796 121.926 133.807 124.963 133.807C128.001 133.807 130.951 132.796 133.35 130.933L216.797 66.1133L223.535 60.8643L213.94 48.5352L203.516 56.6406Z" fill="black"/>
</svg>
