<svg width="75" height="75" viewBox="0 0 75 75" fill="none" xmlns="http://www.w3.org/2000/svg">
<g clip-path="url(#clip0_19_98)">
<path d="M35.479 0V11.9014H39.5214V0H35.4786H35.479ZM18.9721 3.57656L15.6601 5.8955L22.4853 15.6421L25.7955 13.3231L18.9721 3.57656ZM56.0275 3.57656L49.2043 13.3232L52.5149 15.6422L59.34 5.8955L56.028 3.57656H56.0275ZM37.4993 15.1578C27.6101 15.1578 19.5935 21.1629 19.5935 28.5718L29.7668 59.3811H45.2336L55.406 28.5718C55.406 21.1631 47.3899 15.1578 37.5003 15.1578H37.4993ZM5.34158 18.7296L3.96039 22.5304L15.1385 26.6001L16.5248 22.801L5.34133 18.7296H5.34158ZM69.658 18.7296L58.4744 22.8013L59.8561 26.6008L71.0396 22.5305L69.658 18.7296ZM15.9848 36.1051L4.49101 39.1879L5.53389 43.0899L17.0276 40.0114L15.985 36.1051H15.9848ZM59.0148 36.1051L57.9726 40.0114L69.4664 43.0893L70.5085 39.1873L59.0148 36.1049V36.1051ZM29.5413 61.627V66.9824H45.4592V61.6278H29.5413L29.5413 61.627ZM29.5413 69.6446V75H45.4592V69.6455H29.5413L29.5413 69.6446Z" fill="black"/>
</g>
<defs>
<clipPath id="clip0_19_98">
<rect width="75" height="75" fill="white"/>
</clipPath>
</defs>
</svg>
