<svg width="75" height="75" viewBox="0 0 75 75" fill="none" xmlns="http://www.w3.org/2000/svg">
<path d="M23.0469 52.4407L26.9531 47.5595L14.3781 37.5001L26.9531 27.4407L23.0469 22.5595L7.42188 35.0595C7.05577 35.3522 6.76021 35.7236 6.5571 36.1461C6.354 36.5686 6.24854 37.0313 6.24854 37.5001C6.24854 37.9689 6.354 38.4316 6.5571 38.8541C6.76021 39.2766 7.05577 39.648 7.42188 39.9407L23.0469 52.4407ZM51.9531 22.5595L48.0469 27.4407L60.6219 37.5001L48.0469 47.5595L51.9531 52.4407L67.5781 39.9407C67.9442 39.648 68.2398 39.2766 68.4429 38.8541C68.646 38.4316 68.7515 37.9689 68.7515 37.5001C68.7515 37.0313 68.646 36.5686 68.4429 36.1461C68.2398 35.7236 67.9442 35.3522 67.5781 35.0595L51.9531 22.5595ZM46.8 10.0501L34.3 66.3001L28.1969 64.9438L40.6969 8.69385L46.8 10.0501Z" fill="black"/>
</svg>
