<svg width="25" height="25" viewBox="0 0 25 25" fill="none" xmlns="http://www.w3.org/2000/svg">
<g clip-path="url(#clip0_25_186)">
<path d="M4.16667 6.25002V16.6667H9.375V12.5C9.375 11.9475 9.59449 11.4176 9.98519 11.0269C10.3759 10.6362 10.9058 10.4167 11.4583 10.4167H16.6667C17.2192 10.4167 17.7491 10.6362 18.1398 11.0269C18.5305 11.4176 18.75 11.9475 18.75 12.5V16.6667H20.8333V6.25002H4.16667ZM0 20.8334V18.75H4.16667C3.61413 18.75 3.08423 18.5305 2.69353 18.1398C2.30283 17.7491 2.08333 17.2192 2.08333 16.6667V6.25002C2.08333 5.69749 2.30283 5.16758 2.69353 4.77688C3.08423 4.38618 3.61413 4.16669 4.16667 4.16669H20.8333C21.3859 4.16669 21.9158 4.38618 22.3065 4.77688C22.6972 5.16758 22.9167 5.69749 22.9167 6.25002V16.6667C22.9167 17.2192 22.6972 17.7491 22.3065 18.1398C21.9158 18.5305 21.3859 18.75 20.8333 18.75H25V20.8334H18.75C18.75 21.3859 18.5305 21.9158 18.1398 22.3065C17.7491 22.6972 17.2192 22.9167 16.6667 22.9167H11.4583C10.9058 22.9167 10.3759 22.6972 9.98519 22.3065C9.59449 21.9158 9.375 21.3859 9.375 20.8334H0ZM11.9792 20.8334C11.841 20.8334 11.7086 20.8882 11.6109 20.9859C11.5132 21.0836 11.4583 21.2161 11.4583 21.3542C11.4583 21.4923 11.5132 21.6248 11.6109 21.7225C11.7086 21.8201 11.841 21.875 11.9792 21.875C12.1173 21.875 12.2498 21.8201 12.3475 21.7225C12.4451 21.6248 12.5 21.4923 12.5 21.3542C12.5 21.2161 12.4451 21.0836 12.3475 20.9859C12.2498 20.8882 12.1173 20.8334 11.9792 20.8334ZM16.1458 20.8334C16.0077 20.8334 15.8752 20.8882 15.7775 20.9859C15.6799 21.0836 15.625 21.2161 15.625 21.3542C15.625 21.4923 15.6799 21.6248 15.7775 21.7225C15.8752 21.8201 16.0077 21.875 16.1458 21.875C16.284 21.875 16.4164 21.8201 16.5141 21.7225C16.6118 21.6248 16.6667 21.4923 16.6667 21.3542C16.6667 21.2161 16.6118 21.0836 16.5141 20.9859C16.4164 20.8882 16.284 20.8334 16.1458 20.8334ZM13.5417 20.8334V21.875H14.5833V20.8334H13.5417ZM11.4583 12.5V19.7917H16.6667V12.5H11.4583Z" fill="black"/>
</g>
<defs>
<clipPath id="clip0_25_186">
<rect width="25" height="25" fill="white"/>
</clipPath>
</defs>
</svg>
