<svg width="25" height="25" viewBox="0 0 25 25" fill="none" xmlns="http://www.w3.org/2000/svg">
<path d="M8.33328 11.2083H7.72911C6.90464 11.1785 6.08284 11.3185 5.31471 11.6195C4.54658 11.9206 3.84851 12.3763 3.26383 12.9583L3.09717 13.1528V18.9028H5.9305V15.6389L6.31245 15.2083L6.48606 15.0069C7.39017 14.0781 8.51576 13.3946 9.75689 13.0208C9.1355 12.548 8.64542 11.9241 8.33328 11.2083Z" fill="black"/>
<path d="M21.7639 12.9375C21.1793 12.3554 20.4812 11.8997 19.7131 11.5987C18.9449 11.2977 18.1231 11.1577 17.2987 11.1875C17.0458 11.1882 16.7931 11.2021 16.5417 11.2292C16.2237 11.9006 15.747 12.4846 15.1528 12.9306C16.4778 13.2971 17.6781 14.0173 18.6251 15.0139L18.7987 15.2083L19.1737 15.6389V18.9097H21.9098V13.1319L21.7639 12.9375Z" fill="black"/>
<path d="M7.70829 9.85416H7.92356C7.82354 8.9953 7.97424 8.12585 8.35747 7.35075C8.74071 6.57566 9.3401 5.92805 10.0833 5.48611C9.81389 5.07454 9.44222 4.74 9.00468 4.51524C8.56714 4.29047 8.07873 4.18319 7.58727 4.2039C7.09581 4.22462 6.61816 4.37261 6.20108 4.63338C5.784 4.89416 5.44179 5.25879 5.20798 5.69156C4.97416 6.12433 4.85674 6.6104 4.86722 7.10219C4.8777 7.59397 5.01572 8.0746 5.26777 8.49701C5.51981 8.91943 5.87724 9.26914 6.30505 9.51191C6.73286 9.75468 7.21639 9.88219 7.70829 9.88194V9.85416Z" fill="black"/>
<path d="M16.9652 9.33334C16.9737 9.49295 16.9737 9.65289 16.9652 9.8125C17.0985 9.83363 17.2331 9.84523 17.368 9.84723H17.4999C17.9897 9.82111 18.4643 9.66864 18.8776 9.40464C19.2909 9.14065 19.6288 8.77413 19.8585 8.34078C20.0881 7.90743 20.2016 7.422 20.1879 6.93176C20.1742 6.44153 20.0338 5.96318 19.7804 5.54331C19.527 5.12343 19.1692 4.77633 18.7418 4.53579C18.3144 4.29525 17.832 4.16948 17.3416 4.17071C16.8511 4.17194 16.3694 4.30014 15.9432 4.54283C15.517 4.78551 15.161 5.13441 14.9097 5.55556C15.5382 5.96593 16.055 6.52591 16.4138 7.18526C16.7726 7.84461 16.962 8.58271 16.9652 9.33334Z" fill="black"/>
<path d="M12.4097 12.4444C14.1241 12.4444 15.5139 11.0547 15.5139 9.34028C15.5139 7.6259 14.1241 6.23611 12.4097 6.23611C10.6953 6.23611 9.30554 7.6259 9.30554 9.34028C9.30554 11.0547 10.6953 12.4444 12.4097 12.4444Z" fill="black"/>
<path d="M12.5764 14.0972C11.6695 14.0606 10.7646 14.2078 9.91605 14.5301C9.06752 14.8523 8.29295 15.3428 7.63894 15.9722L7.46533 16.1667V20.5625C7.46804 20.7057 7.49893 20.8469 7.55624 20.9782C7.61355 21.1094 7.69616 21.2281 7.79934 21.3274C7.90252 21.4267 8.02426 21.5047 8.1576 21.557C8.29093 21.6092 8.43326 21.6347 8.57644 21.6319H16.5556C16.6988 21.6347 16.8411 21.6092 16.9745 21.557C17.1078 21.5047 17.2295 21.4267 17.3327 21.3274C17.4359 21.2281 17.5185 21.1094 17.5758 20.9782C17.6331 20.8469 17.664 20.7057 17.6667 20.5625V16.1806L17.5001 15.9722C16.8503 15.3409 16.0784 14.849 15.2318 14.5266C14.3851 14.2041 13.4816 14.058 12.5764 14.0972Z" fill="black"/>
</svg>
