<svg width="32" height="32" viewBox="0 0 32 32" fill="none" xmlns="http://www.w3.org/2000/svg">
<path d="M3.66669 13.0667V27C3.66669 27.3536 3.80716 27.6928 4.05721 27.9428C4.30726 28.1929 4.6464 28.3333 5.00002 28.3333H27C27.3536 28.3333 27.6928 28.1929 27.9428 27.9428C28.1929 27.6928 28.3334 27.3536 28.3334 27V5.00001C28.3334 4.64638 28.1929 4.30724 27.9428 4.0572C27.6928 3.80715 27.3536 3.66667 27 3.66667H5.00002C4.6464 3.66667 4.30726 3.80715 4.05721 4.0572C3.80716 4.30724 3.66669 4.64638 3.66669 5.00001V13.0667Z" stroke="black" stroke-linecap="round" stroke-linejoin="round"/>
<path d="M21.08 11.7333V20.2667M25.6666 20.2667L22.1533 16L25.6666 11.762M22.1533 16H21.08M6.50265 19.332C6.74495 19.6508 7.06357 19.9035 7.42915 20.0668C7.79473 20.2301 8.19553 20.2989 8.59465 20.2667H9.85798C10.4231 20.266 10.9649 20.0408 11.364 19.6408C11.7632 19.2407 11.9872 18.6985 11.9866 18.1333V18.1333C11.9872 17.5682 11.7632 17.026 11.364 16.6259C10.9649 16.2258 10.4231 16.0007 9.85798 16H8.46198C7.89683 15.9993 7.3551 15.7742 6.95592 15.3741C6.55673 14.974 6.33278 14.4318 6.33331 13.8667V13.8667C6.33278 13.3015 6.55673 12.7593 6.95592 12.3592C7.3551 11.9592 7.89683 11.734 8.46198 11.7333H9.72531C10.1245 11.701 10.5255 11.7697 10.8912 11.933C11.2569 12.0964 11.5756 12.3491 11.818 12.668M13.7066 20.2667V11.7333H15.6266C16.6168 11.7333 17.5664 12.1267 18.2665 12.8268C18.9666 13.5269 19.36 14.4765 19.36 15.4667V16.5333C19.36 17.5235 18.9666 18.4731 18.2665 19.1732C17.5664 19.8733 16.6168 20.2667 15.6266 20.2667H13.7066Z" stroke="black" stroke-linecap="round" stroke-linejoin="round"/>
</svg>
