<svg width="25" height="25" viewBox="0 0 25 25" fill="none" xmlns="http://www.w3.org/2000/svg">
<path d="M10.4167 18.75C12.2656 18.7496 14.0613 18.1306 15.5177 16.9916L20.0969 21.5708L21.5698 20.0979L16.9907 15.5187C18.1302 14.0621 18.7496 12.2661 18.75 10.4166C18.75 5.82185 15.0115 2.08331 10.4167 2.08331C5.82192 2.08331 2.08337 5.82185 2.08337 10.4166C2.08337 15.0114 5.82192 18.75 10.4167 18.75ZM10.4167 4.16665C13.8636 4.16665 16.6667 6.96977 16.6667 10.4166C16.6667 13.8635 13.8636 16.6666 10.4167 16.6666C6.96983 16.6666 4.16671 13.8635 4.16671 10.4166C4.16671 6.96977 6.96983 4.16665 10.4167 4.16665Z" fill="black"/>
</svg>
