<svg width="25" height="25" viewBox="0 0 25 25" fill="none" xmlns="http://www.w3.org/2000/svg">
<path d="M21.875 6.5031V2.08331H17.4552L18.925 3.55206L13.8896 8.58852C13.3478 8.38791 12.7698 8.30398 12.1934 8.34223C11.617 8.38048 11.0552 8.54004 10.5447 8.81047C10.0342 9.08089 9.58664 9.45609 9.23123 9.91149C8.87581 10.3669 8.62058 10.8922 8.48226 11.4531H5.95831C5.72801 11.0565 5.37328 10.747 4.94914 10.5725C4.525 10.3981 4.05515 10.3685 3.61246 10.4883C3.16977 10.6081 2.77899 10.8706 2.50071 11.2352C2.22244 11.5997 2.07222 12.0459 2.07337 12.5045C2.07452 12.9631 2.22696 13.4085 2.50705 13.7717C2.78715 14.1348 3.17924 14.3954 3.62252 14.513C4.0658 14.6306 4.5355 14.5986 4.95876 14.422C5.38202 14.2455 5.7352 13.9342 5.96351 13.5364H8.47914C8.61663 14.0994 8.87178 14.6269 9.22782 15.0842C9.58385 15.5414 10.0327 15.9181 10.5448 16.1894C11.0569 16.4607 11.6206 16.6205 12.1989 16.6582C12.7772 16.6959 13.357 16.6108 13.9 16.4083L18.9312 21.4396L17.4562 22.9166H21.875V18.4969L20.4062 19.9666L15.6448 15.2062C16.0616 14.7246 16.3614 14.1531 16.5208 13.5364L18.75 13.5416V15.625L21.875 12.5L18.75 9.37498V11.4583L16.5177 11.4531C16.3569 10.8373 16.056 10.2669 15.6385 9.78644L20.3989 5.02602L21.875 6.5031ZM12.5 14.5833C12.0879 14.5833 11.6851 14.4611 11.3425 14.2322C10.9999 14.0033 10.7329 13.6779 10.5752 13.2972C10.4175 12.9166 10.3763 12.4977 10.4567 12.0935C10.5371 11.6894 10.7355 11.3182 11.0268 11.0268C11.3182 10.7355 11.6894 10.5371 12.0935 10.4567C12.4977 10.3763 12.9165 10.4175 13.2972 10.5752C13.6779 10.7329 14.0033 10.9999 14.2322 11.3425C14.4611 11.6851 14.5833 12.0879 14.5833 12.5C14.5833 13.0525 14.3638 13.5824 13.9731 13.9731C13.5824 14.3638 13.0525 14.5833 12.5 14.5833Z" fill="black"/>
</svg>
