<svg width="25" height="25" viewBox="0 0 25 25" fill="none" xmlns="http://www.w3.org/2000/svg">
<rect width="25" height="25" fill="black"/>
<g filter="url(#filter0_d_198_580)">
<path d="M9.312 19.18C8.352 19.18 7.626 18.91 7.134 18.37C6.642 17.818 6.396 17.032 6.396 16.012V15.292H8.268V16.156C8.268 16.972 8.61 17.38 9.294 17.38C9.63 17.38 9.882 17.284 10.05 17.092C10.23 16.888 10.32 16.564 10.32 16.12C10.32 15.592 10.2 15.13 9.96 14.734C9.72 14.326 9.276 13.84 8.628 13.276C7.812 12.556 7.242 11.908 6.918 11.332C6.594 10.744 6.432 10.084 6.432 9.352C6.432 8.356 6.684 7.588 7.188 7.048C7.692 6.496 8.424 6.22 9.384 6.22C10.332 6.22 11.046 6.496 11.526 7.048C12.018 7.588 12.264 8.368 12.264 9.388V9.91H10.392V9.262C10.392 8.83 10.308 8.518 10.14 8.326C9.972 8.122 9.726 8.02 9.402 8.02C8.742 8.02 8.412 8.422 8.412 9.226C8.412 9.682 8.532 10.108 8.772 10.504C9.024 10.9 9.474 11.38 10.122 11.944C10.95 12.664 11.52 13.318 11.832 13.906C12.144 14.494 12.3 15.184 12.3 15.976C12.3 17.008 12.042 17.8 11.526 18.352C11.022 18.904 10.284 19.18 9.312 19.18ZM14.9833 8.2H12.9133V6.4H19.0333V8.2H16.9633V19H14.9833V8.2Z" fill="white"/>
<path d="M7.134 18.37L6.38744 19.0354L6.3948 19.0435L7.134 18.37ZM6.396 15.292V14.292H5.396V15.292H6.396ZM8.268 15.292H9.268V14.292H8.268V15.292ZM10.05 17.092L9.30016 16.4304L9.29742 16.4335L10.05 17.092ZM9.96 14.734L9.09799 15.2411L9.1048 15.2523L9.96 14.734ZM8.628 13.276L7.96636 14.0259L7.97148 14.0303L8.628 13.276ZM6.918 11.332L6.04213 11.8146L6.04642 11.8223L6.918 11.332ZM7.188 7.048L7.9191 7.73036L7.92649 7.72227L7.188 7.048ZM11.526 7.048L10.7714 7.70418L10.779 7.71292L10.7868 7.72149L11.526 7.048ZM12.264 9.91V10.91H13.264V9.91H12.264ZM10.392 9.91H9.392V10.91H10.392V9.91ZM10.14 8.326L9.36807 8.96171L9.37758 8.97325L9.38742 8.9845L10.14 8.326ZM8.772 10.504L7.9168 11.0223L7.92247 11.0317L7.92834 11.0409L8.772 10.504ZM10.122 11.944L9.46548 12.6983L9.46582 12.6986L10.122 11.944ZM11.832 13.906L10.9487 14.3747L10.9487 14.3747L11.832 13.906ZM11.526 18.352L10.7954 17.6691L10.7875 17.6777L11.526 18.352ZM9.312 18.18C8.5402 18.18 8.12093 17.9684 7.8732 17.6965L6.3948 19.0435C7.13107 19.8516 8.1638 20.18 9.312 20.18V18.18ZM7.88051 17.7046C7.60476 17.3953 7.396 16.88 7.396 16.012H5.396C5.396 17.184 5.67924 18.2407 6.38749 19.0354L7.88051 17.7046ZM7.396 16.012V15.292H5.396V16.012H7.396ZM6.396 16.292H8.268V14.292H6.396V16.292ZM7.268 15.292V16.156H9.268V15.292H7.268ZM7.268 16.156C7.268 16.6793 7.37399 17.2581 7.75813 17.7164C8.1706 18.2085 8.74698 18.38 9.294 18.38V16.38C9.22031 16.38 9.2009 16.3688 9.21464 16.3743C9.23449 16.3822 9.26588 16.4018 9.29087 16.4316C9.31271 16.4577 9.307 16.4645 9.29524 16.4224C9.28276 16.3777 9.268 16.2934 9.268 16.156H7.268ZM9.294 18.38C9.82143 18.38 10.389 18.2231 10.8026 17.7505L9.29742 16.4335C9.31046 16.4186 9.32602 16.4047 9.34272 16.3933C9.35921 16.382 9.37241 16.376 9.379 16.3735C9.39083 16.369 9.36915 16.38 9.294 16.38V18.38ZM10.7998 17.7536C11.2161 17.2819 11.32 16.6633 11.32 16.12H9.32C9.32 16.2786 9.30346 16.3762 9.28898 16.4284C9.27513 16.4782 9.26924 16.4654 9.30016 16.4304L10.7998 17.7536ZM11.32 16.12C11.32 15.4354 11.1626 14.789 10.8152 14.2157L9.1048 15.2523C9.23738 15.471 9.32 15.7486 9.32 16.12H11.32ZM10.8219 14.227C10.4997 13.6791 9.95896 13.1087 9.28452 12.5217L7.97148 14.0303C8.59304 14.5713 8.94034 14.9729 9.09807 15.241L10.8219 14.227ZM9.28962 12.5262C8.51063 11.8388 8.03458 11.2773 7.78958 10.8417L6.04642 11.8223C6.44942 12.5387 7.11337 13.2732 7.96638 14.0258L9.28962 12.5262ZM7.79384 10.8494C7.55851 10.4223 7.432 9.93087 7.432 9.352H5.432C5.432 10.2371 5.62949 11.0657 6.04216 11.8146L7.79384 10.8494ZM7.432 9.352C7.432 8.51943 7.64073 8.02852 7.91906 7.73032L6.45694 6.36568C5.72727 7.14748 5.432 8.19257 5.432 9.352H7.432ZM7.92649 7.72227C8.19051 7.4331 8.62014 7.22 9.384 7.22V5.22C8.22786 5.22 7.19349 5.5589 6.44951 6.37373L7.92649 7.72227ZM9.384 7.22C10.134 7.22 10.5341 7.43124 10.7714 7.70418L12.2806 6.39182C11.5579 5.56076 10.53 5.22 9.384 5.22V7.22ZM10.7868 7.72149C11.0545 8.01536 11.264 8.51823 11.264 9.388H13.264C13.264 8.21777 12.9815 7.16064 12.2652 6.37451L10.7868 7.72149ZM11.264 9.388V9.91H13.264V9.388H11.264ZM12.264 8.91H10.392V10.91H12.264V8.91ZM11.392 9.91V9.262H9.392V9.91H11.392ZM11.392 9.262C11.392 8.74251 11.2988 8.13173 10.8926 7.66749L9.38742 8.9845C9.3478 8.93922 9.35079 8.91718 9.36338 8.96397C9.37637 9.01222 9.392 9.1063 9.392 9.262H11.392ZM10.9119 7.69029C10.5114 7.20392 9.95067 7.02 9.402 7.02V9.02C9.4603 9.02 9.46814 9.02922 9.44649 9.02024C9.43553 9.0157 9.4208 9.00799 9.40498 8.9963C9.38914 8.98459 9.37673 8.97223 9.36807 8.96171L10.9119 7.69029ZM9.402 7.02C8.86008 7.02 8.29079 7.19459 7.88657 7.68701C7.51336 8.14164 7.412 8.71254 7.412 9.226H9.412C9.412 9.09014 9.42629 9.00661 9.43842 8.9623C9.44992 8.92027 9.45529 8.92815 9.43243 8.95599C9.40616 8.988 9.37149 9.01119 9.3451 9.0219C9.32484 9.03013 9.33657 9.02 9.402 9.02V7.02ZM7.412 9.226C7.412 9.86771 7.58362 10.4726 7.9168 11.0223L9.6272 9.9857C9.48038 9.74344 9.412 9.49629 9.412 9.226H7.412ZM7.92834 11.0409C8.25816 11.5592 8.79447 12.1143 9.46548 12.6983L10.7785 11.1897C10.1535 10.6457 9.78984 10.2408 9.61566 9.96712L7.92834 11.0409ZM9.46582 12.6986C10.2534 13.3834 10.7195 13.9429 10.9487 14.3747L12.7153 13.4373C12.3205 12.6931 11.6466 11.9446 10.7782 11.1894L9.46582 12.6986ZM10.9487 14.3747C11.1708 14.7933 11.3 15.3165 11.3 15.976H13.3C13.3 15.0515 13.1172 14.1947 12.7153 13.4373L10.9487 14.3747ZM11.3 15.976C11.3 16.8485 11.0833 17.3612 10.7955 17.6691L12.2565 19.0349C13.0007 18.2388 13.3 17.1675 13.3 15.976H11.3ZM10.7875 17.6777C10.5258 17.9644 10.0923 18.18 9.312 18.18V20.18C10.4757 20.18 11.5182 19.8436 12.2645 19.0263L10.7875 17.6777ZM14.9833 8.2H15.9833V7.2H14.9833V8.2ZM12.9133 8.2H11.9133V9.2H12.9133V8.2ZM12.9133 6.4V5.4H11.9133V6.4H12.9133ZM19.0333 6.4H20.0333V5.4H19.0333V6.4ZM19.0333 8.2V9.2H20.0333V8.2H19.0333ZM16.9633 8.2V7.2H15.9633V8.2H16.9633ZM16.9633 19V20H17.9633V19H16.9633ZM14.9833 19H13.9833V20H14.9833V19ZM14.9833 7.2H12.9133V9.2H14.9833V7.2ZM13.9133 8.2V6.4H11.9133V8.2H13.9133ZM12.9133 7.4H19.0333V5.4H12.9133V7.4ZM18.0333 6.4V8.2H20.0333V6.4H18.0333ZM19.0333 7.2H16.9633V9.2H19.0333V7.2ZM15.9633 8.2V19H17.9633V8.2H15.9633ZM16.9633 18H14.9833V20H16.9633V18ZM15.9833 19V8.2H13.9833V19H15.9833Z" fill="black"/>
</g>
<defs>
<filter id="filter0_d_198_580" x="2.396" y="6.22021" width="20.6373" height="20.96" filterUnits="userSpaceOnUse" color-interpolation-filters="sRGB">
<feFlood flood-opacity="0" result="BackgroundImageFix"/>
<feColorMatrix in="SourceAlpha" type="matrix" values="0 0 0 0 0 0 0 0 0 0 0 0 0 0 0 0 0 0 127 0" result="hardAlpha"/>
<feOffset dy="4"/>
<feGaussianBlur stdDeviation="2"/>
<feComposite in2="hardAlpha" operator="out"/>
<feColorMatrix type="matrix" values="0 0 0 0 0 0 0 0 0 0 0 0 0 0 0 0 0 0 0.25 0"/>
<feBlend mode="normal" in2="BackgroundImageFix" result="effect1_dropShadow_198_580"/>
<feBlend mode="normal" in="SourceGraphic" in2="effect1_dropShadow_198_580" result="shape"/>
</filter>
</defs>
</svg>
